<?xml version="1.0" encoding="UTF-8"?>
<svg version="1.1" xmlns="http://www.w3.org/2000/svg" width="500" height="550">
<path d="M0 0 C23.1 0 46.2 0 70 0 C70 38.61 70 77.22 70 117 C75.94 115.68 81.88 114.36 88 113 C93 114 93 114 94.875 116.0625 C96.38348035 120.0013098 96.27691848 123.05979441 95 127 C90.49493691 135.97586715 80.91760992 141.1128367 72 145 C71.34 145 70.68 145 70 145 C70.09337214 151.29500333 70.20079816 157.58966155 70.31738281 163.88427734 C70.35534769 166.01964059 70.3902531 168.15506075 70.421875 170.29052734 C70.1741795 201.84824861 70.1741795 201.84824861 84 229 C84.86625 229.886875 85.7325 230.77375 86.625 231.6875 C99.21005527 241.53522229 115.92772916 240.94734088 131 240 C140.86873456 238.68030621 150.02063314 234.01309941 156.3125 226.25 C167.96429972 209.15854793 167.13860326 186.49845014 167.20532227 166.65527344 C167.21491969 164.83086434 167.2249308 163.00645737 167.23532104 161.18205261 C167.26217446 156.26351238 167.28328895 151.34496275 167.30332303 146.42639065 C167.32530439 141.27344012 167.35263321 136.12051793 167.37937927 130.96759033 C167.42914285 121.22507292 167.47414176 111.48253965 167.51740164 101.73999143 C167.56691429 90.64196118 167.62178006 79.54395938 167.67708123 68.44595671 C167.79065028 45.63066312 167.8968367 22.81534317 168 0 C191.1 0 214.2 0 238 0 C238.06791224 26.87026225 238.12309502 53.74045422 238.15543652 80.61078072 C238.17085725 93.08918471 238.19185433 105.5675313 238.22631836 118.04589844 C238.25636831 128.93132121 238.27560977 139.81670238 238.28226548 150.70216548 C238.2861515 156.45749306 238.2951824 162.2127017 238.31719017 167.96799088 C238.33780265 173.40328059 238.34378468 178.83840423 238.33932304 184.27372932 C238.34013732 186.25116827 238.34595355 188.22861373 238.35761642 190.20601845 C238.54292114 223.29307768 232.93452227 256.36155866 209.1875 280.96484375 C202.27093492 287.81987149 194.65135615 292.61424306 186 297 C185.05125 297.48210937 184.1025 297.96421875 183.125 298.4609375 C162.90318529 308.16035444 141.27068027 310.23373053 119.1875 310.25 C117.95370102 310.25101212 117.95370102 310.25101212 116.69497681 310.25204468 C97.96760284 310.22766393 80.67042524 308.46431767 63 302 C61.95714844 301.63132812 60.91429687 301.26265625 59.83984375 300.8828125 C37.18556209 292.22702636 19.94106943 274.95828254 9.78515625 253.125 C0.33823771 231.81811854 -0.4514221 209.72284195 -0.1875 186.75 C-0.17240574 184.43230049 -0.15872583 182.11459133 -0.14648438 179.796875 C-0.11390132 174.19770081 -0.06408844 168.59889778 0 163 C-1.27460083 163.3417627 -1.27460083 163.3417627 -2.57495117 163.69042969 C-15.71033809 167.10045587 -28.99412927 169.66594222 -42.3125 172.25 C-44.79991216 172.73562484 -47.28729791 173.22138496 -49.7746582 173.70727539 C-67.5426001 177.17000829 -85.32754607 180.53809582 -103.13200378 183.80776978 C-104.70006344 184.0965935 -106.2677923 184.3872198 -107.8351593 184.67977905 C-112.10012337 185.47505416 -116.36843539 186.23570212 -120.64599609 186.96044922 C-122.53615679 187.29250679 -124.42629404 187.62469784 -126.31640625 187.95703125 C-127.19117111 188.09846054 -128.06593597 188.23988983 -128.96720886 188.38560486 C-136.95286383 189.81736762 -141.37630326 193.12420651 -147 199 C-148.486737 200.38933009 -149.98645387 201.76492533 -151.5 203.125 C-152.57701172 204.09373047 -152.57701172 204.09373047 -153.67578125 205.08203125 C-157.82942845 208.5096628 -162.37038088 211.26728919 -167 214 C-167.99 214.598125 -168.98 215.19625 -170 215.8125 C-181.06613231 220.19284404 -192.31450516 219.6966934 -203.30078125 215.35546875 C-215.14130018 209.40950627 -223.54454775 199.31693204 -228 187 C-230.97246749 175.24266043 -229.28886951 162.83329793 -223.4921875 152.24609375 C-216.20722141 141.1492268 -206.81313225 134.1897671 -194 131 C-178.62627148 129.52768302 -164.29531849 133.57665537 -152.1875 143.24609375 C-150.33731055 144.81104566 -148.48831756 146.37741338 -146.640625 147.9453125 C-138.95988718 153.92174459 -130.53642084 155.78215564 -120.92459106 154.78460693 C-116.00891458 154.11297851 -111.12802026 153.24650372 -106.2487793 152.35107422 C-104.46380788 152.03473374 -102.67444526 151.74220828 -100.8815918 151.47412109 C-89.89516179 150.15521054 -89.89516179 150.15521054 -81.24169922 144.01733398 C-79.40561002 141.10056077 -78.04596519 138.02753567 -76.7663269 134.83349609 C-75.57532445 131.98393106 -74.03141548 129.35411928 -72.5 126.67578125 C-71.93128174 125.64138916 -71.36256348 124.60699707 -70.77661133 123.54125977 C-63.07679746 109.54785061 -55.05640068 95.77794633 -46.84423828 82.07861328 C-45.13881803 79.23173093 -43.44099095 76.3804994 -41.74609375 73.52734375 C-38.8558078 68.66952927 -35.93852015 63.82877879 -33 59 C-32.5054834 58.18563477 -32.0109668 57.37126953 -31.50146484 56.53222656 C-11.06413802 23.03206901 -11.06413802 23.03206901 -1 18 C-0.67 12.06 -0.34 6.12 0 0 Z M-1 64 C-1.35602295 64.63687744 -1.7120459 65.27375488 -2.07885742 65.92993164 C-3.78119348 68.97442614 -5.48424804 72.0185178 -7.1875 75.0625 C-7.82099365 76.19486084 -8.4544873 77.32722168 -9.10717773 78.49389648 C-12.71039456 84.93078151 -16.33244367 91.35656072 -19.97680664 97.77026367 C-25.15277523 106.88459051 -30.24613893 116.03993468 -35.25 125.25 C-35.81146729 126.28068604 -36.37293457 127.31137207 -36.95141602 128.37329102 C-37.46760498 129.32776123 -37.98379395 130.28223145 -38.515625 131.265625 C-38.97227539 132.10899414 -39.42892578 132.95236328 -39.89941406 133.82128906 C-41.10899262 136.08448787 -41.10899262 136.08448787 -42 139 C-34.05512972 138.45207791 -26.32882826 137.0081189 -18.53808594 135.41601562 C-16.47707147 134.99531981 -14.41448629 134.58309552 -12.3515625 134.171875 C-6.00197318 133.1194199 -6.00197318 133.1194199 0 131 C0 108.89 0 86.78 0 64 C-0.33 64 -0.66 64 -1 64 Z M-203.9375 158.6875 C-208.52692111 164.56803485 -210.32959159 170.10549039 -210 177.5625 C-209.01371895 184.99594451 -205.88187525 189.7484852 -200.0625 194.375 C-194.34696025 198.30643669 -188.9618123 199.81440068 -182 199 C-174.36219575 197.36545045 -168.56990942 192.56471307 -164.0625 186.3125 C-161.29271675 180.28414822 -160.86879902 173.15013864 -162.61328125 166.75 C-165.35676781 160.56204793 -170.19948887 155.84148477 -176.2734375 152.8984375 C-186.35162842 149.218006 -196.40096982 150.70483273 -203.9375 158.6875 Z M-84 156 C-85.73873643 159.47747287 -85.59073264 163.2061837 -85 167 C-82.54910329 170.19978182 -79.92003156 172.84704954 -76 174 C-70.70434916 173.80743088 -67.80229819 172.69046589 -64 169 C-62.25778289 165.51556578 -62.41324846 161.80112955 -63 158 C-64.70251719 154.92530477 -66.81226508 152.59386746 -70 151 C-76.73780747 150.32621925 -79.26848836 151.15308564 -84 156 Z " fill="#5271FF" transform="translate(246,104)"/>
<path d="M0 0 C-1.28791998 3.3800429 -2.75077354 6.50537127 -4.53125 9.65234375 C-5.25248047 10.94108398 -5.25248047 10.94108398 -5.98828125 12.25585938 C-6.99442316 14.04065633 -8.00223099 15.82451521 -9.01171875 17.60742188 C-14.33298963 27.13007151 -17.25451488 36.25256013 -14.43457031 47.19384766 C-13.46668323 50.28774876 -12.38670674 53.3340561 -11.29077148 56.38452148 C-6.44347542 69.93698847 -5.22358164 83.83384689 -10.70703125 97.43359375 C-16.47116673 108.87479317 -26.19287742 116.66765025 -38.21875 120.75390625 C-50.35463018 123.89780275 -62.61616964 122.3233111 -73.5859375 116.46484375 C-84.62215628 109.76810905 -90.95523706 99.59280137 -94.34375 87.265625 C-96.78860895 75.09954119 -94.27606315 64.63758137 -87.63671875 54.30078125 C-83.31546147 48.22626923 -78.06595179 44.19235807 -71.9375 40.0625 C-71.28885986 39.62526611 -70.64021973 39.18803223 -69.97192383 38.73754883 C-66.82949771 36.67380276 -63.75343689 34.81680241 -60.30078125 33.3203125 C-51.22073303 29.14488879 -48.60776747 25.13318707 -44.5625 16.1875 C-40.17216673 6.67430362 -40.17216673 6.67430362 -35.65234375 4.07421875 C-32.45053468 3.46125209 -29.42980267 3.1476829 -26.17285156 3.09814453 C-22.02367684 2.91073237 -17.95855669 2.03464971 -13.875 1.3125 C-4.71536057 -0.19884051 -4.71536057 -0.19884051 0 0 Z M-71.84375 65.15625 C-75.93090729 71.67360893 -75.89661415 78.52549837 -75 86 C-72.56441636 93.18209508 -68.13560154 97.44629321 -61.51171875 100.94140625 C-54.89878141 103.72850737 -48.72058043 103.30276871 -42 101 C-35.44225713 97.52825377 -30.27046864 92.12385573 -28 85 C-27.16362961 77.4045898 -27.12470727 70.19257238 -32 64 C-36.61137795 59.1479447 -40.96005372 55.54284993 -47.76171875 54.62890625 C-57.92598322 54.39820866 -65.35824046 57.16248243 -71.84375 65.15625 Z " fill="#5271FF" transform="translate(177,290)"/>
</svg>
